<?xml version="1.0" encoding="UTF-8" standalone="no"?>
<!-- Created with Inkscape (http://www.inkscape.org/) -->

<svg
   xmlns:dc="http://purl.org/dc/elements/1.1/"
   xmlns:cc="http://creativecommons.org/ns#"
   xmlns:rdf="http://www.w3.org/1999/02/22-rdf-syntax-ns#"
   xmlns:svg="http://www.w3.org/2000/svg"
   xmlns="http://www.w3.org/2000/svg"
   xmlns:sodipodi="http://sodipodi.sourceforge.net/DTD/sodipodi-0.dtd"
   xmlns:inkscape="http://www.inkscape.org/namespaces/inkscape"
   width="600"
   height="600"
   id="svg2"
   version="1.1"
   inkscape:version="0.48.2 r9819"
   sodipodi:docname="onepiecejs.png"
   inkscape:export-filename="/Users/snow/Desktop/onepiecejs.png"
   inkscape:export-xdpi="90"
   inkscape:export-ydpi="90">
  <defs
     id="defs4" />
  <sodipodi:namedview
     id="base"
     pagecolor="#ffffff"
     bordercolor="#666666"
     borderopacity="1.0"
     inkscape:pageopacity="0.0"
     inkscape:pageshadow="2"
     inkscape:zoom="0.7"
     inkscape:cx="338.86518"
     inkscape:cy="306.11528"
     inkscape:document-units="px"
     inkscape:current-layer="layer6"
     showgrid="false"
     inkscape:window-width="1440"
     inkscape:window-height="852"
     inkscape:window-x="0"
     inkscape:window-y="0"
     inkscape:window-maximized="1" />
  <metadata
     id="metadata7">
    <rdf:RDF>
      <cc:Work
         rdf:about="">
        <dc:format>image/svg+xml</dc:format>
        <dc:type
           rdf:resource="http://purl.org/dc/dcmitype/StillImage" />
        <dc:title></dc:title>
      </cc:Work>
    </rdf:RDF>
  </metadata>
  <g
     inkscape:groupmode="layer"
     id="layer6"
     inkscape:label="1" />
  <g
     inkscape:label="Layer 1"
     inkscape:groupmode="layer"
     id="layer1"
     transform="translate(0,-452.36218)">
    <rect
       style="fill:#e5f1fe;fill-opacity:0;fill-rule:evenodd;stroke:none"
       id="rect2996"
       width="442.85715"
       height="388.57144"
       x="1065.7142"
       y="420.93362" />
    <rect
       style="fill:#e5f1fe;fill-opacity:0;fill-rule:evenodd;stroke:none"
       id="rect3766"
       width="119.70308"
       height="96.974648"
       x="-86.368042"
       y="955.38751" />
    <rect
       style="fill:#e5f1fe;fill-opacity:0;fill-rule:evenodd;stroke:none"
       id="rect3768"
       width="83.842659"
       height="70.205605"
       x="-90.408653"
       y="924.07281" />
    <path
       sodipodi:type="arc"
       style="fill:#e5f1fe;fill-opacity:0;fill-rule:evenodd;stroke:none"
       id="path3770"
       sodipodi:cx="-80.307129"
       sodipodi:cy="1019.2797"
       sodipodi:rx="32.324883"
       sodipodi:ry="27.02158"
       d="m -47.982246,1019.2797 c 0,14.9236 -14.472343,27.0216 -32.324883,27.0216 -17.85254,0 -32.324881,-12.098 -32.324881,-27.0216 0,-14.9236 14.472341,-27.02156 32.324881,-27.02156 17.85254,0 32.324883,12.09796 32.324883,27.02156 z" />
    <path
       sodipodi:type="arc"
       style="fill:#e5f1fe;fill-opacity:0;fill-rule:evenodd;stroke:none"
       id="path3772"
       sodipodi:cx="-29.546963"
       sodipodi:cy="1890.2837"
       sodipodi:rx="25.001276"
       sodipodi:ry="17.67767"
       d="m -4.5456867,1890.2837 c 0,9.7631 -11.1934523,17.6777 -25.0012763,17.6777 -13.807823,0 -25.001276,-7.9146 -25.001276,-17.6777 0,-9.7631 11.193453,-17.6777 25.001276,-17.6777 13.807824,0 25.0012763,7.9146 25.0012763,17.6777 z" />
    <path
       sodipodi:type="arc"
       style="fill:none;stroke:#ffffff;stroke-width:40;stroke-miterlimit:4;stroke-opacity:1;stroke-dasharray:none"
       id="path5535"
       sodipodi:cx="342.85715"
       sodipodi:cy="315.71429"
       sodipodi:rx="201.42857"
       sodipodi:ry="201.42857"
       d="m 544.28572,315.71429 a 201.42857,201.42857 0 1 1 -402.85715,0 201.42857,201.42857 0 1 1 402.85715,0 z"
       transform="matrix(0.972392,0,0,0.972392,-31.391521,451.07844)" />
    <g
       id="g5677"
       style="fill:#ffffff;fill-opacity:1;stroke:none"
       transform="matrix(0.96615873,0,0,0.96615873,21.81397,36.696087)">
      <g
         transform="translate(-8.1428478,-6.4315456)"
         inkscape:transform-center-y="-175.71429"
         id="g5543"
         style="fill:#ffffff;fill-opacity:1;stroke:none">
        <path
           style="fill:#ffffff;fill-opacity:1;stroke:none"
           d="m 288.57143,222.85714 2.85714,-165.714283 c 0,0 -10.34161,-54.4896134 14.28572,-52.857143 29.20739,1.9360685 11.42857,52.857144 11.42857,52.857144 l -8.57143,168.571422 z"
           id="path5537"
           inkscape:connector-curvature="0"
           transform="translate(0,452.36218)"
           sodipodi:nodetypes="ccsccc" />
        <path
           sodipodi:type="arc"
           style="fill:#ffffff;fill-opacity:1;fill-rule:evenodd;stroke:none"
           id="path5539"
           sodipodi:cx="300.71429"
           sodipodi:cy="177.85715"
           sodipodi:rx="19.285715"
           sodipodi:ry="26.428572"
           d="m 320.00001,177.85715 c 0,14.59609 -8.63451,26.42857 -19.28572,26.42857 -10.6512,0 -19.28571,-11.83248 -19.28571,-26.42857 0,-14.5961 8.63451,-26.42857 19.28571,-26.42857 10.65121,0 19.28572,11.83247 19.28572,26.42857 z"
           transform="matrix(1.0740741,0,0,1,-22.846561,446.36218)" />
        <path
           sodipodi:type="arc"
           style="fill:#ffffff;fill-opacity:1;fill-rule:evenodd;stroke:none"
           id="path5541"
           sodipodi:cx="313.57144"
           sodipodi:cy="235.71428"
           sodipodi:rx="33.57143"
           sodipodi:ry="17.142857"
           d="m 347.14287,235.71428 c 0,9.46774 -15.03044,17.14286 -33.57143,17.14286 -18.54099,0 -33.57143,-7.67512 -33.57143,-17.14286 0,-9.46774 15.03044,-17.14286 33.57143,-17.14286 18.54099,0 33.57143,7.67512 33.57143,17.14286 z"
           transform="matrix(0.85009931,0.04050698,-0.04362938,0.91562779,42.860072,453.83381)" />
      </g>
      <g
         inkscape:transform-center-x="-123.16014"
         transform="matrix(0.70710678,0.70710678,-0.70710678,0.70710678,613.98166,0.6143672)"
         id="g5548"
         inkscape:transform-center-y="-117.87609"
         style="fill:#ffffff;fill-opacity:1;stroke:none">
        <path
           sodipodi:nodetypes="ccsccc"
           transform="translate(0,452.36218)"
           inkscape:connector-curvature="0"
           id="path5550"
           d="m 288.57143,222.85714 2.85714,-165.714283 c 0,0 -10.34161,-54.4896134 14.28572,-52.857143 29.20739,1.9360685 11.42857,52.857144 11.42857,52.857144 l -8.57143,168.571422 z"
           style="fill:#ffffff;fill-opacity:1;stroke:none" />
        <path
           transform="matrix(1.0740741,0,0,1,-22.846561,446.36218)"
           d="m 320.00001,177.85715 c 0,14.59609 -8.63451,26.42857 -19.28572,26.42857 -10.6512,0 -19.28571,-11.83248 -19.28571,-26.42857 0,-14.5961 8.63451,-26.42857 19.28571,-26.42857 10.65121,0 19.28572,11.83247 19.28572,26.42857 z"
           sodipodi:ry="26.428572"
           sodipodi:rx="19.285715"
           sodipodi:cy="177.85715"
           sodipodi:cx="300.71429"
           id="path5552"
           style="fill:#ffffff;fill-opacity:1;fill-rule:evenodd;stroke:none"
           sodipodi:type="arc" />
        <path
           transform="matrix(0.85009931,0.04050698,-0.04362938,0.91562779,42.860072,453.83381)"
           d="m 347.14287,235.71428 c 0,9.46774 -15.03044,17.14286 -33.57143,17.14286 -18.54099,0 -33.57143,-7.67512 -33.57143,-17.14286 0,-9.46774 15.03044,-17.14286 33.57143,-17.14286 18.54099,0 33.57143,7.67512 33.57143,17.14286 z"
           sodipodi:ry="17.142857"
           sodipodi:rx="33.57143"
           sodipodi:cy="235.71428"
           sodipodi:cx="313.57144"
           id="path5554"
           style="fill:#ffffff;fill-opacity:1;fill-rule:evenodd;stroke:none"
           sodipodi:type="arc" />
      </g>
      <g
         id="g5556"
         transform="matrix(0,1,-1,0,1044.0795,447.50504)"
         inkscape:transform-center-x="-175.71427"
         style="fill:#ffffff;fill-opacity:1;stroke:none">
        <path
           style="fill:#ffffff;fill-opacity:1;stroke:none"
           d="m 288.57143,222.85714 2.85714,-165.714283 c 0,0 -10.34161,-54.4896134 14.28572,-52.857143 29.20739,1.9360685 11.42857,52.857144 11.42857,52.857144 l -8.57143,168.571422 z"
           id="path5558"
           inkscape:connector-curvature="0"
           transform="translate(0,452.36218)"
           sodipodi:nodetypes="ccsccc" />
        <path
           sodipodi:type="arc"
           style="fill:#ffffff;fill-opacity:1;fill-rule:evenodd;stroke:none"
           id="path5560"
           sodipodi:cx="300.71429"
           sodipodi:cy="177.85715"
           sodipodi:rx="19.285715"
           sodipodi:ry="26.428572"
           d="m 320.00001,177.85715 c 0,14.59609 -8.63451,26.42857 -19.28572,26.42857 -10.6512,0 -19.28571,-11.83248 -19.28571,-26.42857 0,-14.5961 8.63451,-26.42857 19.28571,-26.42857 10.65121,0 19.28572,11.83247 19.28572,26.42857 z"
           transform="matrix(1.0740741,0,0,1,-22.846561,446.36218)" />
        <path
           sodipodi:type="arc"
           style="fill:#ffffff;fill-opacity:1;fill-rule:evenodd;stroke:none"
           id="path5562"
           sodipodi:cx="313.57144"
           sodipodi:cy="235.71428"
           sodipodi:rx="33.57143"
           sodipodi:ry="17.142857"
           d="m 347.14287,235.71428 c 0,9.46774 -15.03044,17.14286 -33.57143,17.14286 -18.54099,0 -33.57143,-7.67512 -33.57143,-17.14286 0,-9.46774 15.03044,-17.14286 33.57143,-17.14286 18.54099,0 33.57143,7.67512 33.57143,17.14286 z"
           transform="matrix(0.85009931,0.04050698,-0.04362938,0.91562779,42.860072,453.83381)" />
      </g>
      <g
         inkscape:transform-center-y="123.16014"
         inkscape:transform-center-x="-117.87608"
         transform="matrix(-0.70710678,0.70710678,-0.70710678,-0.70710678,1035.0336,1067.6296)"
         id="g5564"
         style="fill:#ffffff;fill-opacity:1;stroke:none">
        <path
           sodipodi:nodetypes="ccsccc"
           transform="translate(0,452.36218)"
           inkscape:connector-curvature="0"
           id="path5566"
           d="m 288.57143,222.85714 2.85714,-165.714283 c 0,0 -10.34161,-54.4896134 14.28572,-52.857143 29.20739,1.9360685 11.42857,52.857144 11.42857,52.857144 l -8.57143,168.571422 z"
           style="fill:#ffffff;fill-opacity:1;stroke:none" />
        <path
           transform="matrix(1.0740741,0,0,1,-22.846561,446.36218)"
           d="m 320.00001,177.85715 c 0,14.59609 -8.63451,26.42857 -19.28572,26.42857 -10.6512,0 -19.28571,-11.83248 -19.28571,-26.42857 0,-14.5961 8.63451,-26.42857 19.28571,-26.42857 10.65121,0 19.28572,11.83247 19.28572,26.42857 z"
           sodipodi:ry="26.428572"
           sodipodi:rx="19.285715"
           sodipodi:cy="177.85715"
           sodipodi:cx="300.71429"
           id="path5568"
           style="fill:#ffffff;fill-opacity:1;fill-rule:evenodd;stroke:none"
           sodipodi:type="arc" />
        <path
           transform="matrix(0.85009931,0.04050698,-0.04362938,0.91562779,42.860072,453.83381)"
           d="m 347.14287,235.71428 c 0,9.46774 -15.03044,17.14286 -33.57143,17.14286 -18.54099,0 -33.57143,-7.67512 -33.57143,-17.14286 0,-9.46774 15.03044,-17.14286 33.57143,-17.14286 18.54099,0 33.57143,7.67512 33.57143,17.14286 z"
           sodipodi:ry="17.142857"
           sodipodi:rx="33.57143"
           sodipodi:cy="235.71428"
           sodipodi:cx="313.57144"
           id="path5570"
           style="fill:#ffffff;fill-opacity:1;fill-rule:evenodd;stroke:none"
           sodipodi:type="arc" />
      </g>
      <g
         id="g5572"
         transform="matrix(-1,0,0,-1,590.14288,1499.7274)"
         inkscape:transform-center-y="175.71428"
         style="fill:#ffffff;fill-opacity:1;stroke:none">
        <path
           style="fill:#ffffff;fill-opacity:1;stroke:none"
           d="m 288.57143,222.85714 2.85714,-165.714283 c 0,0 -10.34161,-54.4896134 14.28572,-52.857143 29.20739,1.9360685 11.42857,52.857144 11.42857,52.857144 l -8.57143,168.571422 z"
           id="path5574"
           inkscape:connector-curvature="0"
           transform="translate(0,452.36218)"
           sodipodi:nodetypes="ccsccc" />
        <path
           sodipodi:type="arc"
           style="fill:#ffffff;fill-opacity:1;fill-rule:evenodd;stroke:none"
           id="path5576"
           sodipodi:cx="300.71429"
           sodipodi:cy="177.85715"
           sodipodi:rx="19.285715"
           sodipodi:ry="26.428572"
           d="m 320.00001,177.85715 c 0,14.59609 -8.63451,26.42857 -19.28572,26.42857 -10.6512,0 -19.28571,-11.83248 -19.28571,-26.42857 0,-14.5961 8.63451,-26.42857 19.28571,-26.42857 10.65121,0 19.28572,11.83247 19.28572,26.42857 z"
           transform="matrix(1.0740741,0,0,1,-22.846561,446.36218)" />
        <path
           sodipodi:type="arc"
           style="fill:#ffffff;fill-opacity:1;fill-rule:evenodd;stroke:none"
           id="path5578"
           sodipodi:cx="313.57144"
           sodipodi:cy="235.71428"
           sodipodi:rx="33.57143"
           sodipodi:ry="17.142857"
           d="m 347.14287,235.71428 c 0,9.46774 -15.03044,17.14286 -33.57143,17.14286 -18.54099,0 -33.57143,-7.67512 -33.57143,-17.14286 0,-9.46774 15.03044,-17.14286 33.57143,-17.14286 18.54099,0 33.57143,7.67512 33.57143,17.14286 z"
           transform="matrix(0.85009931,0.04050698,-0.04362938,0.91562779,42.860072,453.83381)" />
      </g>
      <g
         inkscape:transform-center-x="123.16013"
         inkscape:transform-center-y="117.87609"
         transform="matrix(-0.70710678,-0.70710678,0.70710678,-0.70710678,-39.981617,1488.6815)"
         id="g5580"
         style="fill:#ffffff;fill-opacity:1;stroke:none">
        <path
           sodipodi:nodetypes="ccsccc"
           transform="translate(0,452.36218)"
           inkscape:connector-curvature="0"
           id="path5582"
           d="m 288.57143,222.85714 2.85714,-165.714283 c 0,0 -10.34161,-54.4896134 14.28572,-52.857143 29.20739,1.9360685 11.42857,52.857144 11.42857,52.857144 l -8.57143,168.571422 z"
           style="fill:#ffffff;fill-opacity:1;stroke:none" />
        <path
           transform="matrix(1.0740741,0,0,1,-22.846561,446.36218)"
           d="m 320.00001,177.85715 c 0,14.59609 -8.63451,26.42857 -19.28572,26.42857 -10.6512,0 -19.28571,-11.83248 -19.28571,-26.42857 0,-14.5961 8.63451,-26.42857 19.28571,-26.42857 10.65121,0 19.28572,11.83247 19.28572,26.42857 z"
           sodipodi:ry="26.428572"
           sodipodi:rx="19.285715"
           sodipodi:cy="177.85715"
           sodipodi:cx="300.71429"
           id="path5584"
           style="fill:#ffffff;fill-opacity:1;fill-rule:evenodd;stroke:none"
           sodipodi:type="arc" />
        <path
           transform="matrix(0.85009931,0.04050698,-0.04362938,0.91562779,42.860072,453.83381)"
           d="m 347.14287,235.71428 c 0,9.46774 -15.03044,17.14286 -33.57143,17.14286 -18.54099,0 -33.57143,-7.67512 -33.57143,-17.14286 0,-9.46774 15.03044,-17.14286 33.57143,-17.14286 18.54099,0 33.57143,7.67512 33.57143,17.14286 z"
           sodipodi:ry="17.142857"
           sodipodi:rx="33.57143"
           sodipodi:cy="235.71428"
           sodipodi:cx="313.57144"
           id="path5586"
           style="fill:#ffffff;fill-opacity:1;fill-rule:evenodd;stroke:none"
           sodipodi:type="arc" />
      </g>
      <g
         id="g5588"
         transform="matrix(0,-1,1,0,-464.07944,1041.7908)"
         inkscape:transform-center-y="-2.6582967e-05"
         inkscape:transform-center-x="175.71429"
         style="fill:#ffffff;fill-opacity:1;stroke:none">
        <path
           style="fill:#ffffff;fill-opacity:1;stroke:none"
           d="m 288.57143,222.85714 2.85714,-165.714283 c 0,0 -10.34161,-54.4896134 14.28572,-52.857143 29.20739,1.9360685 11.42857,52.857144 11.42857,52.857144 l -8.57143,168.571422 z"
           id="path5590"
           inkscape:connector-curvature="0"
           transform="translate(0,452.36218)"
           sodipodi:nodetypes="ccsccc" />
        <path
           sodipodi:type="arc"
           style="fill:#ffffff;fill-opacity:1;fill-rule:evenodd;stroke:none"
           id="path5592"
           sodipodi:cx="300.71429"
           sodipodi:cy="177.85715"
           sodipodi:rx="19.285715"
           sodipodi:ry="26.428572"
           d="m 320.00001,177.85715 c 0,14.59609 -8.63451,26.42857 -19.28572,26.42857 -10.6512,0 -19.28571,-11.83248 -19.28571,-26.42857 0,-14.5961 8.63451,-26.42857 19.28571,-26.42857 10.65121,0 19.28572,11.83247 19.28572,26.42857 z"
           transform="matrix(1.0740741,0,0,1,-22.846561,446.36218)" />
        <path
           sodipodi:type="arc"
           style="fill:#ffffff;fill-opacity:1;fill-rule:evenodd;stroke:none"
           id="path5594"
           sodipodi:cx="313.57144"
           sodipodi:cy="235.71428"
           sodipodi:rx="33.57143"
           sodipodi:ry="17.142857"
           d="m 347.14287,235.71428 c 0,9.46774 -15.03044,17.14286 -33.57143,17.14286 -18.54099,0 -33.57143,-7.67512 -33.57143,-17.14286 0,-9.46774 15.03044,-17.14286 33.57143,-17.14286 18.54099,0 33.57143,7.67512 33.57143,17.14286 z"
           transform="matrix(0.85009931,0.04050698,-0.04362938,0.91562779,42.860072,453.83381)" />
      </g>
      <g
         inkscape:transform-center-x="117.87607"
         inkscape:transform-center-y="-123.16016"
         transform="matrix(0.70710678,-0.70710678,0.70710678,0.70710678,-455.03351,419.66625)"
         id="g5596"
         style="fill:#ffffff;fill-opacity:1;stroke:none">
        <path
           sodipodi:nodetypes="ccsccc"
           transform="translate(0,452.36218)"
           inkscape:connector-curvature="0"
           id="path5598"
           d="m 288.57143,222.85714 2.85714,-165.714283 c 0,0 -10.34161,-54.4896134 14.28572,-52.857143 29.20739,1.9360685 11.42857,52.857144 11.42857,52.857144 l -8.57143,168.571422 z"
           style="fill:#ffffff;fill-opacity:1;stroke:none" />
        <path
           transform="matrix(1.0740741,0,0,1,-22.846561,446.36218)"
           d="m 320.00001,177.85715 c 0,14.59609 -8.63451,26.42857 -19.28572,26.42857 -10.6512,0 -19.28571,-11.83248 -19.28571,-26.42857 0,-14.5961 8.63451,-26.42857 19.28571,-26.42857 10.65121,0 19.28572,11.83247 19.28572,26.42857 z"
           sodipodi:ry="26.428572"
           sodipodi:rx="19.285715"
           sodipodi:cy="177.85715"
           sodipodi:cx="300.71429"
           id="path5600"
           style="fill:#ffffff;fill-opacity:1;fill-rule:evenodd;stroke:none"
           sodipodi:type="arc" />
        <path
           transform="matrix(0.85009931,0.04050698,-0.04362938,0.91562779,42.860072,453.83381)"
           d="m 347.14287,235.71428 c 0,9.46774 -15.03044,17.14286 -33.57143,17.14286 -18.54099,0 -33.57143,-7.67512 -33.57143,-17.14286 0,-9.46774 15.03044,-17.14286 33.57143,-17.14286 18.54099,0 33.57143,7.67512 33.57143,17.14286 z"
           sodipodi:ry="17.142857"
           sodipodi:rx="33.57143"
           sodipodi:cy="235.71428"
           sodipodi:cx="313.57144"
           id="path5602"
           style="fill:#ffffff;fill-opacity:1;fill-rule:evenodd;stroke:none"
           sodipodi:type="arc" />
      </g>
    </g>
    <path
       transform="matrix(0.22066589,0,0,0.22066589,226.34315,688.40912)"
       d="m 544.28572,315.71429 a 201.42857,201.42857 0 1 1 -402.85715,0 201.42857,201.42857 0 1 1 402.85715,0 z"
       sodipodi:ry="201.42857"
       sodipodi:rx="201.42857"
       sodipodi:cy="315.71429"
       sodipodi:cx="342.85715"
       id="path5604"
       style="fill:none;stroke:#ffffff;stroke-width:131.35134888;stroke-miterlimit:4;stroke-opacity:1;stroke-dasharray:none"
       sodipodi:type="arc" />
  </g>
</svg>
